<svg width="462" height="321" fill="none" xmlns="http://www.w3.org/2000/svg">
  <path opacity=".15" d="M94.473 3.757c38.184-14.201 69.054 15.62 79.654 27.034 34.803 26.433 61.281 29.956 90.213 12.131 15.601-9.612 29.106-34.878 82.07-34.878 42.943 0 73.025 41.656 56.781 77.4-22.903 50.398 11.26 39.041 25.766 72.146 20.518 46.822-66.324 155.757-152.212 94.6-78.522-55.912-159.305 52.002-247.642 11.467-43.203-19.825-30.269-72.8-12.406-86.001 25.202-18.623 48.98-17.768 56.782-43 7.806-25.251 5.735-29.686-9.066-53.99C49.41 56.037 57.255 17.6 94.473 3.758z" fill="#2D73B4"/>
  <path d="M117.791 160.611s2.953 6.456 3.3 6.78c.348.325 2.027-1.539 2.027-1.539s-5.327-7.456-5.327-5.241z" fill="#FD5E5A"/>
  <path d="M125.347 164.474c0-.216-5.472-5.808-6.196-5.105-.724.675 4.198 6.537 4.198 6.537l1.998-1.432z" fill="#FD5E5A"/>
  <path d="M141.154 291.917l1.535 9.13-7.325.756s-1.042-3.458-2.519-8.914l8.309-.972z" fill="#FC7575"/>
  <path d="M160.378 164.258s17.429 56.104 14.853 61.425h-15.258l-22.206-33.495 22.611-27.93z" fill="#265B72"/>
  <path d="M177.236 130.226c.812 1.402 37.949.595 40.836.522.942-.474 3.365-1.633 4.963-1.885 2.009-.337 4.451-1.689 4.672-.511.221 1.178-1.869 1.831-2.732 1.989a.82.82 0 00.185 1.626c2.402.172 11.906-1.882 10.801-.436-.632.84-7.755 1.665-9.198 1.9-1.443.236 6.02.284 9.121.411 3.1.127 1.705 1.412-.011 1.233-1.716-.18-9.153-.24-9.059.264.095.505 8.592.861 8.801 2.076.235 1.202-1.349.341-2.686.248-1.338-.094-5.618-1.407-6.313-.505 0 0 5.488 2.547 4.77 2.786-.807.253-9.311-2.617-12.196-3.282-8.605 1.049-46.021 5.527-50.572 4.258-5.139-1.433-11.175-25.743-11.175-25.743l14.615-9.939c-.014-.024 4.147 23.205 5.178 24.988z" fill="#FD5E5A"/>
  <path d="M173.088 251.344s-1.998 13.452-1.998 19.017c0 5.564-5.79 16.693-8.772 22.258-2.982 5.564 2.143 14.073 12.102 13.452 9.93-.622 9.293-8.509 12.275-3.566 2.982 4.943-12.42 7.563-18.384 4.646-5.964-2.944-8.512-6.645-8.512-11.453 0-4.781 8.512-17.018 9.178-23.663.666-6.644.318-16.396.318-16.396l3.793-4.295z" fill="#1A3D4C"/>
  <path d="M173.407 105.75s13.433 25.715 9.496 29.389c-3.938 3.674-22.525 25.337-22.525 29.119l-25.535-7.347s8.743-18.747 6.833-29.119c-1.911-10.373-3.851-21.016 3.213-24.068 7.064-3.025 28.518 2.026 28.518 2.026z" fill="#9A1C1F"/>
  <path d="M182.816 133.842c1.303-4.646-7.441-23.662-9.409-28.092 3.705 6.348 10.22 19.232 10.857 26.201.202 4.89-.724 1.702-17.603 22.691-1.737 2.106-3.416 4.267-4.98 6.509 6.601-11.939 20.874-26.309 21.135-27.309z" fill="#D7A4A5"/>
  <path d="M116.661 173.388c5.443-9.616 19.079-18.476 19.079-18.476l25.97 6.239-1.332 3.107-10.596 16.963s-10.046 39.762-10.046 46.11c0 6.348 2.432 64.586 2.432 64.586l-9.844.945c-4.777-17.531-14.302-55.78-9.959-67.557 0 0-11.118-42.301-5.704-51.917z" fill="#5C94AD"/>
  <path d="M144.889 103.724s-23.885 4.051-32.86 8.103c-8.946 4.052 6.775 43.571 6.775 43.571l2.287 12.236s2.866-1.134 3.648-1.756c.521-.405 1.36-1.647 2.055-1.647 1.39 0 2.924-1.756 2.924-1.756l-5.471-8.887s-5.849-26.202-1.101-30.659c3.446-3.214 11.986-2.107 16.474-1.242 1.737.324 3.503-.46 4.314-1.945 2.605-4.727 7.122-14.668.955-16.018z" fill="#FC7575"/>
  <path d="M175.231 225.683s.26 35.035-2.317 37.412c-2.576 2.404-6.89 2.08-9.119 0-2.23-2.08-4.806-34.008-3.822-37.412 1.013-3.403 12.941-4.025 15.258 0z" fill="#6C6584"/>
  <path d="M152.243 96.025l-.463-.513c-2.693-4.133-11.928-6.834-16.677-.513-1.679 2.242-3.937 5.969-.694 11.021l1.65-1.135c-1.129-1.512-1.911-3.944-1.419-6.159.348-1.35.898-2.052.985-2.269.173-.135 2.837-5.483 9.843-4.294 4.806.783 6.138 3.43 6.775 3.862z" fill="#12192C"/>
  <path d="M152.214 95.647s-5.733-1.918-9.351-.73c-3.619 1.19-5.357 7.375-2.722 15.155 2.635 7.779 10.741 12.047 10.741 17.017 0 4.97-6.109 4.727-6.109 4.727s2.519 2.863 7.441 1.81c4.893-1.053 3.879-7.996 3.879-7.996s2.722 2.81 1.564 4.782c0 0 3.358-.649 2.345-6.888-1.013-6.24-7.354-15.316-8.715-20.043-1.389-4.727 2.403-5.97 2.403-5.97l-1.476-1.864zM171.046 58.564s5.588-2.108 7.809-1.506c2.221.57 5.517 1.941 7.523 6.225 2.006 4.283-.824 16.866-4.012 22.79-3.188 5.923-14.974 13.486-14.974 13.486s-3.045.502-7.666-4.718c-4.622-5.22 2.149-35.206 11.32-36.277z" fill="#12192C"/>
  <path d="M157.223 89.326v13.641s5.327 13.912 10.133 13.534c4.777-.379.752-10.103 0-13.047-.753-2.945-.29-9.779-.29-9.779l-9.843-4.349z" fill="#FC7575"/>
  <path d="M157.222 89.326v4.457c2.838 2.675 7.499 4.97 9.004 5.619.232.108.464.189.695.297-.087-2.917.116-5.997.116-5.997l-9.815-4.376z" fill="#FD5E5A"/>
  <path d="M177.863 62.512s3.902 2.283 5.021 6.713c1.12 4.43-1.264 7.532-1.264 9.747s-.361 4.123-3.757 11.586c-3.396 7.464-6.178 5.862-8.635 4.874-2.492-.954-11.705-5.18-13.728-9.372-2.023-4.192-.144-17.55 5.997-21.81 6.142-4.26 15.463-2.386 16.366-1.738z" fill="#FC8080"/>
  <path d="M177.89 57.95s3.236 3.217.981 6.74c-2.254 3.523-12.797 9.418-16.906 13.415-4.108 3.997-4.29 9.654-3.163 11.754 1.127 2.1-.69 7.419-.69 7.419s-11.38-1.118-13.998-13.313c-1.6-7.419-.291-20.46 4.981-24.932 5.308-4.437 14.397-6.707 20.069-5.25 5.635 1.457 8.726 4.166 8.726 4.166z" fill="#243158"/>
  <path d="M179.349 63.507c.145.102.182.237.363.474 2.718 8.439-13.155 4.203-20.802 12.2-2.863 3.016-4.494 7.93-4.965 12.37-.616 6.133 4.494 11.386 10.836 11.182l-.217 3.118c-4.712 0-10.836-3.287-12.974-7.421-2.573-4.948-.145-12.065 2.79-16.809 3.262-5.219 8.625-6.845 14.641-8.065 6.342-1.254 11.488-1.491 10.763-5.66-.145-.542-.435-1.253-.435-1.389z" fill="#4962AF"/>
  <path d="M163.154 77.77s-1.17-3.099-2.997-2.34c-1.828.79-2.559 5.31-1.279 6.448 1.279 1.138 4.276-.916 4.276-4.109z" fill="#FC8080"/>
  <path d="M162.094 78.11s-.202-2.626-1.72-2.066c-.506.175-2.26 4.305-.978 4.76 1.282.49 2.8-1.365 2.698-2.695z" fill="#FD5E5A"/>
  <path d="M142.602 296.887s.405 4.889.695 8.238c.289 3.323 2.027 5.862-2.171 6.888-4.169 1.027-8.773.217-9.41-1.917-.608-2.107 3.127-7.537 2.924-9.698-.173-2.161.956-3.133 1.709-2.512.81.621 6.253-.999 6.253-.999z" fill="#662D91"/>
  <path d="M143.731 310.231c-.666.864-1.679 1.053-2.837 1.215-2.432.325-7.817.622-9.149-1.377 0 .594.376 1.161.84 1.567 3.271 2.836 11.001 1.377 11.146-1.405z" fill="#FFDA88"/>
  <path d="M135.335 302.451c.261 2.728 4.198 3.242 5.183.648.029-.054.029-.081.057-.135 1.506-4.16 1.564-5.267 1.853-6.212.319-1.054.753-2.486-1.534-3.269-2.287-.81-5.53-.432-5.443.54.058.649-.492 4.295-.116 8.428z" fill="#F4E7FF"/>
  <path d="M140.894 293.483c2.287.811 1.882 2.242 1.534 3.269-.289.945-.347 2.053-1.853 6.212-.029.055-.029.082-.058.136-.086.243-.202.432-.318.621.029-.054.058-.135.087-.189.029-.054.029-.081.058-.135 1.505-4.16 1.563-5.268 1.853-6.213.318-1.054.752-2.485-1.535-3.269-1.882-.648-4.4-.54-5.182.082-.058-.973 3.127-1.324 5.414-.514z" fill="#fff"/>
  <path d="M140.141 303.775s-.695-6.051.174-6.348c.868-.324 2.258-.54 2.258-.54s.058 6.158-.897 7.266c-.956 1.107-1.535-.378-1.535-.378z" fill="#B699CE"/>
  <path d="M134.727 299.777c0 .081.058.135.116.189 2.692 1.621 6.022-.486 6.167-.567.115-.081.144-.216.058-.351a.29.29 0 00-.348-.081c-.029.027-3.213 2.026-5.616.567-.116-.081-.29-.027-.348.081-.029.081-.029.135-.029.162zM134.785 302.235c0 .081.058.135.116.189 1.679 1.081 5.79-.54 5.964-.621.116-.054.203-.189.145-.324-.058-.135-.203-.189-.319-.135-1.129.459-4.285 1.431-5.472.675-.115-.081-.289-.054-.347.081-.087.027-.087.081-.087.135zM134.756 303.991c0 .054.029.135.087.162 1.361 1.107 5.79-.27 6.283-.432a.271.271 0 00.173-.324.28.28 0 00-.318-.162c-1.274.405-4.835 1.323-5.791.513-.115-.081-.26-.081-.347.027-.087.081-.087.162-.087.216z" fill="#fff"/>
  <path d="M141.386 306.098s1.361 3.052.782 3.701c-.579.648-8.657 1.188-8.773-.163-.115-1.35 1.477-4.186 2.172-4.429.724-.271 5.819.891 5.819.891z" fill="#B699CE"/>
  <path opacity=".15" d="M239.502 317.613c20.833 0 37.721-3.082 37.721-6.884 0-3.802-16.888-6.884-37.721-6.884-20.833 0-37.721 3.082-37.721 6.884 0 3.802 16.888 6.884 37.721 6.884z" fill="#352C38"/>
  <path d="M238.943 66.806s9.676-3.147 14.514 3.344c4.837 6.49-.458 15.603 5.818 19.34s.719 4.654.719 4.654 6.08 2.82 1.961 4.983c0 0 6.08 2.163 1.112 6.031 0 0 4.837 2.754-1.569 5.442 0 0 4.511 3.802-2.55 4.917-7.06 1.114-25.561-5.769-25.561-5.769l5.556-42.942z" fill="#6F96BD"/>
  <path d="M240.251 66.74s-10.329-8.85-18.763.656c-5.295 5.9-1.438 15.734-7.714 18.685-6.276 2.95-1.242 4.589-1.242 4.589s-5.949 2.098-2.419 4.786c0 0-5.949 1.442-1.765 5.9 0 0-4.838 2.163.85 5.638 0 0-4.642 3.278 1.765 5.245s24.516-2.688 24.516-2.688l4.772-42.81z" fill="#6F96BD"/>
  <path d="M225.476 91.915l2.484 16.98-10.263 1.115s22.489 26.093 23.535 25.83c8.694-1.901 11.375-25.633 11.375-25.633l-13.271-1.312-2.615-15.21-11.245-1.77z" fill="#FFAC9D"/>
  <path opacity=".15" d="M228.68 106.207a6.808 6.808 0 01-1.112-.262l-2.092-14.03 11.245 1.77 2.419 14.293c-3.53-.066-7.257-1.049-10.46-1.771z" fill="#352C38"/>
  <path d="M221.423 81.754s2.027-9.769 14.317-11.08c12.291-1.311 15.494 8.916 15.429 17.308-.066 8.391-3.857 16.521-13.402 17.373-11.637.983-16.344-9.44-16.344-23.601z" fill="#FFAC9D"/>
  <path d="M221.946 84.114s-4.249-1.442-3.988 3.147c.392 7.277 5.557 5.441 5.557 5.441s-1.83-2.688-1.569-8.588z" fill="#FFAC9D"/>
  <path d="M242.605 68.51s-.719 8.261-5.688 11.736c-4.968 3.475-11.31 3.606-11.31 3.606s-1.111 6.425-2.092 4.917c0 0-2.223-3.475-3.269-6.228-1.046-2.688 1.373-17.046 10.983-17.242 9.611-.197 11.376 3.212 11.376 3.212z" fill="#6F96BD"/>
  <path d="M225.411 298.231l1.242 7.343s-26.346 12.587 5.753 3.081l1.046-12.784-8.041 2.36z" fill="#FFAC9D"/>
  <path opacity=".2" d="M232.929 303.017l.589-7.146-8.041 2.36.849 4.851c2.092-.262 4.38-.065 6.603-.065z" fill="#352C38"/>
  <path d="M232.602 305.836l-.196 2.884s-14.513 5.77-16.147 3.803c-1.635-1.967 8.629-5.966 8.629-5.966s-3.203 3.212 7.714-.721z" fill="#352C38"/>
  <path d="M253.261 298.231l-1.242 7.343s26.346 12.587-5.753 3.081l-1.112-12.718 8.107 2.294z" fill="#FFAC9D"/>
  <path opacity=".2" d="M245.743 303.017l-.589-7.08 8.042 2.36-.85 4.851c-2.158-.328-4.38-.131-6.603-.131z" fill="#352C38"/>
  <path d="M246.07 305.836l.196 2.884s14.513 5.77 16.147 3.803c1.635-1.967-8.629-5.966-8.629-5.966s3.203 3.212-7.714-.721z" fill="#352C38"/>
  <path d="M264.702 165.343h-50.338s-7.061 7.801-5.623 28.321c1.439 20.52 10.656 51.858 10.656 51.858s-5.753 13.702-1.438 31.665 7.518 25.175 7.518 25.175l8.041-.328 6.669-97.683.523.196 4.249 97.094 8.63.721s3.203-7.212 7.518-25.175c4.314-17.963-1.439-31.665-1.439-31.665s9.349-30.026 10.787-50.546c1.439-20.455-5.753-29.633-5.753-29.633z" fill="#765E69"/>
  <path opacity=".2" d="M239.924 202.449c-11.702-4.327-22.816-11.473-31.053-20.979-.392 3.474-.523 7.473-.196 12.259 1.438 20.52 10.656 51.858 10.656 51.858s-5.753 13.702-1.438 31.665 7.518 25.175 7.518 25.175l8.041-.328 6.603-97.159c-.065-.852-.131-1.705-.131-2.491zM223.385 168.817c7.91.787 15.82 1.114 23.796 1.114 3.726 0 7.453 0 11.179-.196 2.681-.131 5.622-.197 8.237-1.049-1.046-2.295-1.895-3.409-1.895-3.409h-50.339s-.654.721-1.504 2.294c3.465.459 6.995.918 10.526 1.246z" fill="#352C38"/>
  <path d="M268.035 124.564c-9.152-16.914-17.978-15.931-17.978-15.931v.066c-9.218 3.999-18.566 7.67-31.053.721 0 0-8.891.393-15.428 18.488-6.538 18.094-7.584 30.485-1.373 32.91 4.38 1.705 11.571-9.571 15.494-16.389l-5.034 20.913c27.915 4.983 55.372 1.705 55.372 1.705-1.895-5.835-3.922-12.063-5.491-17.177 4.38 4.589 9.152 8.523 11.833 6.949 5.687-3.212 2.811-15.341-6.342-32.255z" fill="#FC6A5A"/>
  <path opacity=".2" d="M270.52 129.35c-2.877 4.786-6.668 8.981-12.16 10.817-11.048 3.737-21.377-2.163-32.164-3.933-2.027 4.785-4.903 10.489-9.48 12.259l-4.053 16.915c27.915 4.982 55.373 1.704 55.373 1.704-1.896-5.835-3.923-12.063-5.492-17.176 4.38 4.589 9.153 8.522 11.833 6.949 5.165-2.95 3.269-13.112-3.857-27.535z" fill="#352C38"/>
  <path d="M272.263 157.288s7.81-1.993 5.258-8.674c-2.583-6.624-42.319-3.068-42.319-3.068s-2.39.409-4.083 1.868c-1.692 1.459-8.29 9.029 1.622.587 0 0-13.342 15.955 1.694.18 0 0-9.489 14.781 2.035.515 0 0-6.819 13.036.697 1.87-.006.146 13.755 4.903 35.096 6.722z" fill="#FFAC9D"/>
  <path d="M310.187 101.335l-5.066-1.923s-9.751 18.871-11.407 26.564c-1.656 7.694-5.111 30.976-5.111 30.976l13.18 8.267 8.995-47.741-.591-16.143z" fill="url(#paint0_linear)"/>
  <path d="M290.924 155.218c2.347.746 4.123 2.221 3.539 4.838-.593 2.516-4.766 3.601-6.853 4.143l-8.181 2.175c-1.742.49-4.083.707-4.928-.916-.539-.955-.179-2.198.286-3.184 1.861-3.945 5.775-6.749 10.014-7.553 1.503-.18 4.013-.127 6.123.497z" fill="#F49CA5"/>
  <path d="M292.848 161.048s-.374 3.131-6.853 4.143-5.456 1.88-8.181 2.175c-2.725.294-5.093.903-5.169-2.432-.076-3.334 6.144-10.842 14.797-9.391" stroke="#000" stroke-miterlimit="10" stroke-linecap="round" stroke-linejoin="round"/>
  <path d="M291.205 189.351s15.851 55.766 35.25 102.074c-.193 2.102-.137 5.478 1.675 7.09 1.812 1.658 11.927-6.45 8.721-9.363-10.083-9.094-10.258-46.917-12.679-57.599l-8.519-52.421-24.448 10.219z" fill="#F49CA5"/>
  <path opacity=".32" d="M292.956 195.573s14.099 49.499 33.499 95.807c-.686 2.794-7.327 10.662-5.515 12.275 1.811 1.612 19.116-11.636 15.91-14.548-10.082-9.094-10.258-46.917-12.679-57.599l-5.42-36.778-25.795.843z" fill="#F49CA5"/>
  <path d="M334.771 285.218c-3.2 2.928-3.347 10.505-7.484 12.171l-3.418.833a3.82 3.82 0 00-2.528 2.05c-1.236 2.712-3.481 7.997-2.134 9.207 1.812 1.657 19.384-14.789 19.384-14.789s2.974-2.742-.232-5.654c-1.951-1.747-2.867-1.777-3.588-3.818z" fill="#68396B"/>
  <path d="M307.367 239.089s-3.748 11.196-10.15 60.719c-1.206 1.754-10.299 5.329-9.574 7.598.77 2.268 18.767.325 18.651-3.871-.401-13.043 20.043-38.344 16.482-54.209l1.235-8.279-16.644-1.958z" fill="#F49CA5"/>
  <path d="M307.625 298.311c-4.282 1.121-8.041 8.986-12.532 8.56l-2.4-1.192c-1.846-.927-4.084-.662-5.711.552-2.485 1.912-5.687 4.703-5.206 6.11.77 2.268 24.415-4.013 24.415-4.013s3.964-1.025 2.615-5.063c-.818-2.405-1.557-2.849-1.181-4.954z" fill="#68396B"/>
  <path d="M334.499 159.516s7.209 6.951 8.281 21.808c1.317 18.549-33.387 102.265-33.387 102.265s-9.26 18.178-11.234 15.108c-1.974-3.115 15.153-114.507 15.153-114.507l-19.798-7.243s.653-10.186 5.735-15.518c3.655 5.14 35.25-1.913 35.25-1.913z" fill="#F49CA5"/>
  <path d="M333.542 154.33c-1.274-2.306-2.32-4.661-2.774-7.209-.658-3.73.285-7.579 2.012-11.03 2.035-4.14 5.138-7.432 6.621-11.791 2.005-5.966 3.422-8.818 2.77-14.922-.275-2.778-3.053-4.74-5.649-6.704-4.216-3.123-8.664-.904-13.396-2.011-1.057-.257-2.11-.285-3.16-.176-1.234.112-2.564-.048-3.893-.208-3.853-.529-7.666 1.314-9.349 4.673-1.55 3.083-.484 3.887-.355 6.12.068 1.368.644 5.693-.022 6.891-1.376 2.578-7.031 3.722-7.257 6.6-.224 3.016.265 4.924.867 8.062.453 2.457 2.681 4.336 2.402 6.804-.438 3.932-1.701 7.74-3.795 11.151-.268.416-1.343 9.97-1.657 10.34-23.926 25.04-25.945 65.729-22.991 80.919 5.35 27.151 96.118 14.909 96.648 5.547.711-12.241-2-34.781-3.119-46.945-.731-8.11-2.914-15.511-8.517-24.908-1.742-2.937-4.915-6.579-7.256-9.78-1.216-1.531-16.147-7.806-18.13-11.423z" fill="#1F73BD"/>
  <path d="M338.299 102.188s8.141 32.58 11.256 43.707c1.267 4.632 6.416 19.695 6.416 19.695s1.167 1.395.711 1.494c-.82.196-3.553.972-5.422 1.414-8.661 1.97-25.768 5.176-31.683 1.716-10.953-6.433-17.86-41.77-14.386-47.486 3.474-5.717 21.057-21.479 21.057-21.479s7.361-3.089 12.051.939z" fill="url(#paint1_linear)"/>
  <path opacity=".32" d="M319.069 142.617c.355-.69.673-3.524.982-4.214 1.943-4.23 2.871-6.162 3.986-10.652.685-2.795 2.763-4.427 3.908-7.093.793-1.838 3.819-1.524 3.457 1.448-.524 4.253-.28 2.423-.804 6.676-.284 2.194-.522 4.343-.806 6.538-.159 1.417.05 2.965-.202 4.338-.504 2.655-2.973 5.525-5.004 7.202-2.257 1.908-5.075 3.051-8.041 3.511-.502.099-1.005.153-1.464.024-3.171-.814 2.125-4.279 3.067-5.39 1.348-1.482-.01-.593.921-2.388z" fill="#F49CA5"/>
  <path d="M321.47 105.618c2.835-2.876 6.421-4.625 6.278-4.987-.144-.363.293-2.74-.033-5.792l-.575-4.491.982-1.085 2.459-2.473 1.449-3.025-1.067-4.314-2.604-2.42-5.69-3.692-7.116-1.387-10.313-1.014-2.062-.148s-6.354 5.901-2.976 19.031c1.222 4.68 7.463 8.454 7.463 8.454s2.075.923 3.499 1.264c1.424.342.512 5.969.492 7.521-.057 2.1 1.03 6.873 1.03 6.873l2.299-2.092c-.001-.046 4.821-4.507 6.485-6.223z" fill="#C59171"/>
  <path d="M320.873 74.45s.073 2.583 1.889 4.469c.838.853.728 2.488.728 2.488s1.248.703 1.769-.994c.52-1.697 6.448-2.713 5.78 3.868 0 0-1.252 4.2-4.899 5.083 0 0-.777.464.026 1.5 0 0 .035 4.179 1.074 5.483.511 1.67.042 2.5.042 2.5s1.728-1.793 3.924-4.567c2.196-2.775 3.926-4.45 5.357-8.59.458-2.509.735-5.143.383-7.008-.251-1.32-.883-4.756-3.092-5.449-2.161-.648-12.981 1.217-12.981 1.217z" fill="#604845"/>
  <path d="M311.586 105.601s1.431-4.724-.376-6.062l-4.277-1.252s.723 2.178 4.653 7.314z" fill="#503B37"/>
  <path d="M303.224 70.79s-3.098 3.565-3.366 6.717c0 0-1.057-5.777-.042-8.03l3.408 1.312z" fill="#604845"/>
  <path d="M326.283 81.491s1.543-.801 2.108.147c0 0 .652.674-.456 2.837 0 0-.93 1.84-1.386 1.94-.456.099 1.239-2.53 1.239-2.53s.479-1.423.197-1.875c-.001-.045-.334-.815-1.702-.519z" fill="#75473B"/>
  <path d="M326.224 83.409c-.279-.27.912 2.54 1.039 1.944 0 0 .515-2.061-1.039-1.944z" fill="#75473B"/>
  <path d="M334.792 67.66l1.045-3.211s.63-3.387.745-4.667c.116-1.28.343-4.112.093-5.385-.498-2.456-4.076-5.681-8.122-6.846-2.438-.735-6.979-1.343-9.501-1.666-2.752-.364-9.071-.624-11.835 3.757-1.648 2.674-2.87 6.208-3.613 11.057 0 0-7.487-1.654-7.74 2.366 0 0-1.192 2.575 1.652 5.721 2.425 2.697 25.309 8.383 37.111 5.402 0 0 7.876-2.413 7.162-6.782 0 0-.358-2.275-5.027-2.334-4.624-.15-1.97 2.588-1.97 2.588z" fill="#995745"/>
  <path d="M326.794 49.132s5.612 1.732 6.194 11.897c0 0 5.017-9.21-6.194-11.897z" fill="#AD6550"/>
  <path d="M296.886 61.268s4.305 5.677 23.145 7.597c0 0 17.404.896 19.621-3.34 0 0 2.439.781 2.101 2.475 0 0-5.297 6.157-18.999 4.972 0 0-20.848-1.613-26.947-7.853.044-.047-.509-3.049 1.079-3.851z" fill="#D49159"/>
  <path d="M303.604 60.7l-1.089 3.303s-10.835-4.884 1.089-3.304z" fill="#6D3523"/>
  <path d="M335.375 64.183s-7.573 1.404-14.354.924c-8.154-.547-17.498-3.768-17.498-3.768l-.87 2.707s4.799 2.384 16.491 3.74c11.692 1.355 15.726-.948 15.726-.948l.505-2.655z" fill="#D49159"/>
  <path d="M296.91 62.636s10.433 5.484 15.477 6.084c0 0-14.749-.849-15.477-6.084zM326.442 66.34s-5.919-3.688-4.816-.65c1.103 3.04.567 3.824 4.743 1.746 0 0 1.494 1.8 2.796.318 0 0 2.183 1.926 4.52-.623 2.337-2.548-2.799-3.193-2.508-2.194.292 1.045-1.407.663-1.764 1.216-.403.555-.855-1.856-2.971.187z" fill="#EBC09F"/>
  <path d="M332.168 187.023l10.699-.544c2.148-.127 3.72-1.933 3.411-3.981l-1.753-11.743c-.257-1.684-1.742-2.937-3.528-2.998l-10.985-.181c-2.289-.053-4.041 1.892-3.685 4.031l2.039 12.468c.304 1.774 1.973 3.07 3.802 2.948z" fill="#E94A78"/>
  <path d="M331.087 188.09l10.699-.544c2.149-.127 3.72-1.933 3.411-3.981l-1.752-11.743c-.257-1.684-1.742-2.936-3.528-2.998l-10.986-.181c-2.289-.053-4.041 1.893-3.685 4.031l2.039 12.469c.305 1.774 1.928 3.07 3.802 2.947z" stroke="#000" stroke-miterlimit="10" stroke-linecap="round" stroke-linejoin="round"/>
  <path d="M330.636 172.082s-23.913-59.008-24.766-63.465c-.801-4.093 3.275-6.671 3.275-6.671" stroke="#E94A78" stroke-width="3.704" stroke-miterlimit="10"/>
  <path opacity=".32" d="M316.777 106.837c2.183-.812 2.988-1.92 4.752-3.182.543-.374 1.539-.984 1.756-1.717.001.091.245.999.292 1.044.158 1.229-1.429 2.123-2.153 2.637-1.717 1.261-5.328 1.504-4.647 1.218z" fill="#F49CA5"/>
  <path d="M287.906 191.87s-7.904 47.267-5.415 59.271M302.831 194.997s-7.904 47.266-5.415 59.271M354.608 166.16l-4.744.946s11.983 15.071 14.578 30.632c2.639 15.516 3.051 27.65 3.811 48.443M333.525 73.978s7.205-1.535 7.447-6.193c.166-3.744-3.091-4.214-5.871-3.575 0 0 1.781-8.38-.201-11.998-1.368-2.44-4.53-4.784-10.496-5.825-5.828-.998-14.007-3.597-18.377 3.23-1.516 2.398-3.067 5.435-3.352 10.276 0 0-6.384-1.399-7.165 1.17-.826 2.569-1.171 3.806.103 6.158 1.275 2.351 2.783 2.235 2.783 2.235s-.584 3.34.311 7.614c0 0-1.565 7.692.774 13.448 2.293 5.756 6.251 7.105 6.251 7.105l1.149 3.065s-6.045 1.601-10.031 13.099c0 0-6.21 11.739-7.7 32.069M328.804 100.157l-1.796.03-.039-2.336" stroke="#000" stroke-miterlimit="10" stroke-linecap="round" stroke-linejoin="round"/>
  <path d="M342.889 168.683c4.746-.809 6.976-1.531 6.976-1.531M326.962 100.188s-10.359 7.2-13.756 12.002c-3.398 4.802-3.156 2.836-7.462 8.064-4.351 5.229-3.199 19.354 5.924 42.244 0 0 2.269 7.08 13.765 7.664" stroke="#000" stroke-miterlimit="10"/>
  <path d="M299.034 151.303c1.632 1.843 2.401 4.02.557 5.968-1.799 1.855-5.938.646-8.007.042l-8.139-2.327c-1.747-.473-3.869-1.487-3.762-3.314.027-1.096.974-1.978 1.879-2.587 3.62-2.433 8.418-2.833 12.47-1.349 1.383.616 3.51 1.949 5.002 3.567z" fill="#F49CA5"/>
  <path d="M334.351 101.479l-11.246 41.71-27.162 6.66s.402 7.613 2.382 8.355c1.981.743 36.388-4.989 37.682-7.018.935-1.522 7.06-21.062 9.625-31.873.258-1.008.629-3.433.47-4.753-.644-5.647-4.562-12.837-10.965-12.638l-.786-.443z" fill="url(#paint2_linear)"/>
  <path d="M328.878 121.692l-5.818 21.497-27.162 6.66s.401 7.568 2.382 8.356c1.981.788 33.572-3.71 37.681-7.018 0 0 4.406-10.158 6.094-24.148" stroke="#000" stroke-miterlimit="10" stroke-linecap="round" stroke-linejoin="round"/>
  <path d="M328.332 100.028s4.578.106 9.442 3.629c4.819 3.57 7.572 9.501 6.333 14.723-1.24 5.223-2.053 8.613-2.053 8.613s8.991 31.379 12.225 38.671M317.283 99.014s-6.974 1.616-13.04-2.283M338.769 64.628s-2.953 6.757-26.449 2.815c-5.69-.954-16.639-4.421-15.227-7.502M332.837 73.899s-15.97 2.776-33.704-4.182" stroke="#000" stroke-miterlimit="10" stroke-linecap="round" stroke-linejoin="round"/>
  <path d="M319.713 74.438c.061.911.372 3.096 1.769 4.533.838.853.908 2.312.908 2.312s1.193 2.945 2.453-1.09c.521-1.698 5.767-2.653 5.099 3.93 0 0-.853 3.71-4.499 4.592 0 0-1.338-.662-.44 1.056 0 0 .369 5.607.836 6.192.513.585 1.127 1.715 1.127 1.715s1.437-1.621 3.633-4.395c2.196-2.775 4.74-6.65 4.981-8.616.288-1.967.484-4.47.021-6.982-.151-.819-.68-2.361-1.615-3.532" stroke="#000" stroke-miterlimit="10"/>
  <path d="M310.895 99.863s.66 1.176.069 4.151c-.591 2.976.295 9.44 1.128 9.974M310.241 104.574s-2.962-4.742-3.51-4.687M368.753 246.173s-12.839 9.762-49.7 10.379c-38.279-1.367-41.14-4.736-46.362-13.272 0 0-11.151-38.819 20.625-82.357" stroke="#000" stroke-miterlimit="10" stroke-linecap="round" stroke-linejoin="round"/>
  <path d="M298.705 148.068c.176-.413 4.08-10.517 1.759-12.486-2.321-1.969-4.356-11.471-1.188-13.532 3.169-2.06 7.892-4.238 6.365-7.954-1.572-3.715-3.152-7.887-.277-11.129 2.874-3.242 2.246-2.501 2.246-2.501" stroke="#000" stroke-miterlimit="10"/>
  <path d="M297.716 157.302s-1.926 2.496-8.008.043c-6.081-2.454-5.648-1.183-8.139-2.328-2.49-1.145-4.835-1.836-3.191-4.738 1.645-2.902 10.834-6.158 17.519-.475M321.025 256.747s-3.331 14.292-12.597 32.105c0 0-3.84 8.414-2.65 11.178 1.191 2.809 2.701 5.521-1.471 7.827-4.125 2.305-24.992 7.764-24.415 4.013.578-3.751 13.961-10.728 15.441-12.532.987-1.158 5.543-43.395 5.543-43.395" stroke="#000" stroke-miterlimit="10" stroke-linecap="round" stroke-linejoin="round"/>
  <path d="M325.382 257.359s4.085 25.346 6.777 27.628c0 0 8.444 4.148 5.042 8.677-3.402 4.528-16.966 14.337-16.966 14.337s-4.798 3.183-3.095-1.728c1.702-4.91 3.388-8.087 7.476-15.365.533-.967-8.245-19.664-8.245-19.664M301.896 70.72s-3.168 4.844-3.19 6.305M325.517 65.808s-5.967-3.824-4.816-.695c1.151 3.129.615 3.913 4.789 1.79 0 0 1.495 1.846 2.798.364 0 0 2.23 2.016 4.52-.577 2.291-2.594-2.846-3.284-2.508-2.24.292 1.045-1.408.663-1.765 1.216-.448.555-.947-1.946-3.018.142zM348.709 193.773s9.169 45.537 7.129 57.617M334.172 197.438s9.258 45.114 7.218 57.194" stroke="#000" stroke-miterlimit="10" stroke-linecap="round" stroke-linejoin="round"/>
  <path d="M366.072 211.369s-2.97 3.015-13.656 4.335c0 0-4.293 3.266-10.803 2.553M367.612 224.073s-2.97 3.016-13.656 4.335c0 0-4.293 3.266-10.803 2.554M335.974 220.313s-3.578 2.25-14.304 1.198c0 0-4.905 2.227-11.117.14M336.168 231.946s-3.577 2.25-14.303 1.197M298.791 218.837s-4.005 1.344-14.133-2.273c0 0-5.291 1.001-10.796-2.557M296.703 230.826s-4.004 1.345-14.132-2.273c0 0-5.292 1.001-10.797-2.557" stroke="#000" stroke-miterlimit="10" stroke-linecap="round" stroke-linejoin="round"/>
  <path opacity=".15" d="M139.998 316.496c12.704 0 23.002-3.168 23.002-7.077s-10.298-7.078-23.002-7.078c-12.703 0-23.001 3.169-23.001 7.078 0 3.909 10.298 7.077 23.001 7.077zM55.712 317.783c12.704 0 23.002-3.169 23.002-7.078 0-3.908-10.298-7.077-23.002-7.077-12.703 0-23.001 3.169-23.001 7.077 0 3.909 10.298 7.078 23.002 7.078zM408.138 321c28.782 0 52.115-7.202 52.115-16.085 0-8.884-23.333-16.085-52.115-16.085-28.783 0-52.116 7.201-52.116 16.085 0 8.883 23.333 16.085 52.116 16.085z" fill="#352C38"/>
  <path opacity=".15" d="M317.5 320c21.815 0 39.5-4.477 39.5-10s-17.685-10-39.5-10-39.5 4.477-39.5 10 17.685 10 39.5 10z" fill="#352C38"/>
  <path d="M380.42 59.323c-4.181-8.048-5.303-16.387 2.167-20.77 5.051-2.967 10.954-3.937 21.734.33 7.625 3.025 10.16.368 10.16.368s.929 8.669.619 15.205c-.464 10.24-7.102 13.73-7.102 13.73l-27.578-8.863z" fill="#D6D2B8"/>
  <path d="M376.83 301.408c-4.206 2.871-11.525 2.444-11.97 6.426-.444 3.982.89 3.316.89 3.316s10.858 1.111 17.288 0c6.429-1.111 8.857-1.333 11.525-1.333 2.667 0 3.984-1.111 3.984-1.111l-1.111-5.538-20.606-1.76zM429.566 302.947c-4.651 3.982-6.207 7.981-4.873 9.075 1.334 1.11 13.509.888 15.954.222 2.445-.667 5.318-4.205 4.429-7.537-.889-3.299-15.51-1.76-15.51-1.76z" fill="#80513D"/>
  <path d="M348.325 169.779c-5.164 2.29-11.081 4.939-12.192 7.759-1.112 2.803-2.07 10.853-.89 11.963 1.18 1.111 7.541-2.358 9.166-4.58 1.624-2.221 6.72-7.537 7.455-8.049.736-.53-3.539-7.093-3.539-7.093z" fill="#B37D56"/>
  <path d="M352.925 191.86l-.103 1.76c-.068 1.094.77 2.051 1.864 2.102 1.094.068 2.052-.769 2.103-1.863l.154-2.58c.359-5.931-3.916-11.246-9.832-11.947-6.43-.769-12.124 4.085-12.5 10.443l-6.755 115.632 3.985.24 6.703-114.779c.239-3.913 3.608-6.938 7.524-6.767 4.018.171 7.096 3.742 6.857 7.759z" fill="#855440"/>
  <path d="M350.309 172.206l-1.693-2.735s-10.346 4.649-11.013 5.537c-.667.889-2.804 3.179-3.095 5.691-.29 2.513.291 7.606.291 7.606s.376-.957.376-1.47 1.248-2.666 1.248-2.666.069-3.845 2.138-5.315c2.069-1.47 3.249-.821 3.249-.821s.068 0 .205-.017c.855 2.154.581 4.598.017 6.854-.701 2.819-.393 4.272 3.762-.274 4.155-4.563 3.061-3.931 3.625-7.93a5.034 5.034 0 00.017-1.435c.36-1.402.873-3.025.873-3.025z" fill="#C4895E"/>
  <path d="M387.33 92.12c.034-1.332-.736-2.324-1.3-1.127-7.165 15.142-13.047 54.227-21.153 63.336-9.08 10.186-17.954 15.279-17.954 15.279s4.428 9.297 5.095 9.519c.667.223 16.177-3.315 24.59-8.408s9.302-6.426 9.302-6.426l1.42-72.172z" fill="#8C9049"/>
  <path d="M376.608 170.736c8.413-5.093 9.302-6.426 9.302-6.426l1.454-73.984c.017-1.008-1.556.906-1.881 1.863-1.642 4.717-3.044 8.152-4.6 14.083-4.771 28.609-4.993 47.613-6.036 54.278-1.249 7.913-5.831 12.886-12.278 16.031 4.737-1.47 10.14-3.486 14.039-5.845zM417.802 73.407c-13.475 1.88-20.76 11.126-20.76 11.126l-4.48 6.477 29.874-6.204-2.822-10.408-1.812-.991z" fill="#7E8242"/>
  <path d="M387.74 167.232c-2.411 14.288-12.363 61.457-13.269 69.763-.907 8.306.307 64.772.307 64.772s8.448 3.982 14.484 4.99c6.036.992 10.26 0 10.26 0s1.231-54.877 2.411-61.781c2.103-12.288 21.118-53.817 21.118-53.817l-20.52-33.548-14.791 9.621z" fill="#45425C"/>
  <path d="M407.49 165.729l-18.844 7.161c7.849 23.909 6.037 76.41 4.224 100.319-1.265 16.715-2.377 28.234-2.941 33.651 5.66.82 9.576-.102 9.576-.102s1.231-54.877 2.411-61.782c2.103-12.288 21.118-53.817 21.118-53.817l-15.544-25.43z" fill="#3A384D"/>
  <path d="M413.681 74.552c22.931 3.982 30.762 15.28 33.173 18.936 2.411 3.658.924 58.347.325 88.238-.598 29.908 5.438 77.077 3.625 99.67-1.812 22.593-3.933 25.687-3.933 25.687s-10.259-3.982-16.894-2l-6.635 2s-2.103-54.262-5.113-71.523c-3.009-17.278-6.652-22.149-10.26-41.41-3.642-19.278-17.219-19.278-17.219-19.278s-7.473.445-9.286-28.13c-1.812-28.575 5.661-54.262 5.661-54.262l16.894-11.297 9.662-6.63z" fill="#45425C"/>
  <path d="M413.681 74.552l-9.662 6.649-6.275 3.828-10.619 7.468s-7.473 26.268-5.661 54.843c1.813 28.575 9.286 27.532 9.286 27.532s5.728 0 10.738 5.281c12.124 2.29 26.061 2 33.602-.632 5.677-1.983 9.627-4.17 12.26-5.965.667-30.711 1.71-76.735-.496-80.068-2.411-3.657-10.242-14.954-33.173-18.936z" fill="#D6D3BF"/>
  <path d="M400.565 82.089c-3.317 2.153-5.13 8.648-5.13 8.648l-1.094-5.982 6.839-3.538-.615.872zM413.339 73.458c5.027-.717 3.42-.99 8.242.393 4.822 1.385-1.762 4.922-1.762 4.922s-.855-4.033-2.462-4.426c-1.607-.393-4.172.171-4.172.171l.154-1.06z" fill="#8C9049"/>
  <path d="M411.663 67.596s5.694 14.1 2.702 20.406c-2.993 6.306-13.8 8.392-15.014 5.4-1.197-3.007.308-5.092-.599-9.296-.906-4.205-1.505-10.801-1.505-10.801l13.509-13.194.907 7.485z" fill="#E0A477"/>
  <path d="M412.945 71.168c-.684-2.153-1.265-3.589-1.265-3.589l-.906-7.502-13.509 13.193s.598 6.597 1.504 10.801c.513 2.359.257 4.068.154 5.64 4.6-1.316 10.739-4.375 14.022-18.543z" fill="#CF976E"/>
  <path d="M380.168 56.482s-.727 16.692 1.455 22.106c2.181 5.414 4.997 6.179 5.799 6.179.802 0 .242-23.813.242-23.813l-7.496-4.472z" fill="#D6D2B8"/>
  <path d="M410.185 62.372c-1.402 13.94-5.121 19.469-17.777 19.469-7.262 0-10.436-8.722-11.954-17.094-2.045-11.272 4.011-22.895 11.273-22.895 7.262.02 19.82 6.853 18.458 20.52z" fill="#E0A477"/>
  <path d="M398.154 83.063c-7.541 18.269-7.285 35.018-2.326 63.063 2.993 16.919 6.977 22.44 6.977 22.44l-1.453 12.663s-10.278-1.059-13.903-4.392c-3.625-3.315-10.396-4.289-8.242-37.94 2.343-36.71 4.925-47.426 8.841-50.416 3.933-2.991 10.106-5.418 10.106-5.418z" fill="#8C9049"/>
  <path d="M402.788 168.6s-.804-.906-2.189-3.23l-.017.136c-2.821 3.025-2.274 8.631-1.505 15.45 1.351.222 2.257.308 2.257.308l1.454-12.664z" fill="#7E8242"/>
  <path d="M445.863 91.916c-2.925-4.119-10.756-14.835-27.651-18.987 5.352 13.381-.906 48.929-7.233 65.404-6.532 16.971-10.995 28.968-10.995 31.309 0 1.607.051 7.623 1.043 9.896.119.119.205 1.623.307 1.743 12.124 2.29 26.061 1.999 33.619-.633 3.215-1.128 5.882-2.324 8.071-3.469 1.436-10.562 2.394-58.551 2.839-85.263z" fill="#8C9049"/>
  <path d="M434.936 180.631c3.214-1.128 5.882-2.324 8.071-3.469 1.453-10.545 2.411-58.534 2.838-85.246-1.402-1.966-3.933-5.452-8.019-8.99l-1.215.274c-6.326 4.324-9.661 22.918-9.045 31.224.598 8.305 6.07 32.334 3.659 45.767-2.103 11.656-.068 18.509-10.893 22.628 7.114.085 10.209-.667 14.604-2.188z" fill="#7E8242"/>
  <path d="M437.278 187.433c-3.437 6.375-4.36 11.041-4.052 12.869.308 1.829 2.325 8.819 2.838 8.819.513 0 1.009-3.35 1.009-4.768 0-1.419-.701-4.461.308-4.461s2.941 6.58 3.352 7.503c.41.906.102 9.006 1.829 8.101 1.727-.906 4.857-7.401 4.857-8.614 0-1.213-.103-3.538-.701-5.366-.599-1.829-2.223-5.367-2.326-7.195-.103-1.829-.205-4.666-.205-4.666l-6.909-2.222z" fill="#C4895E"/>
  <path d="M437.791 82.96c13.903 6.205 18.126 32.113 22.658 53.374 4.531 21.26-13.578 58.79-13.578 58.79s-9.952-3.726-11.645-7.127c-.769-1.555 6.823-31.736 4.412-39.051-2.411-7.314-9.661-18.594-9.661-38.197 0-19.602 7.814-27.788 7.814-27.788z" fill="#8C9049"/>
  <path d="M402.651 171.181c.699 0 1.266-.628 1.266-1.402 0-.774-.567-1.401-1.266-1.401-.699 0-1.265.627-1.265 1.401s.566 1.402 1.265 1.402zM403.13 179.367c.699 0 1.265-.627 1.265-1.401s-.566-1.402-1.265-1.402-1.265.628-1.265 1.402c0 .774.566 1.401 1.265 1.401zM397.299 164.532c.699 0 1.265-.627 1.265-1.401s-.566-1.402-1.265-1.402-1.266.628-1.266 1.402c0 .774.567 1.401 1.266 1.401zM393.81 153.167c.699 0 1.266-.627 1.266-1.401s-.567-1.401-1.266-1.401c-.698 0-1.265.627-1.265 1.401s.567 1.401 1.265 1.401zM391.263 141.204c.699 0 1.265-.627 1.265-1.401s-.566-1.402-1.265-1.402-1.266.628-1.266 1.402c0 .774.567 1.401 1.266 1.401zM390.049 129.993c.698 0 1.265-.627 1.265-1.401s-.567-1.402-1.265-1.402c-.699 0-1.266.628-1.266 1.402 0 .774.567 1.401 1.266 1.401z" fill="#855440"/>
  <path d="M331.174 309.817l-3.472-.257a1.532 1.532 0 01-1.402-1.606l.308-4.273a1.532 1.532 0 011.607-1.401l3.472.256c.82.069 1.453.787 1.402 1.607l-.308 4.272a1.489 1.489 0 01-1.607 1.402z" fill="#3A384D"/>
  <path d="M405.634 62.722s7.255-9.65 8.225-4.95c.97 4.701-.242 11.39-3.133 11.39s-5.316-2.733-5.316-2.733l.224-3.707z" fill="#E0A477"/>
  <path d="M387.924 47.337c-7.946-1.726-2.815-6.286 5.284-7.213 8.1-.944 18.535 1.417 18.037 1.417-.498 0-5.131 4.797-12.58 5.724-7.429.944-10.741.072-10.741.072z" fill="#D6D2B8"/>
  <path d="M393.617 50.015c-3.469 0-7.25-1.207-10.66-4.46a.246.246 0 010-.35.246.246 0 01.35 0c5.73 5.453 12.512 4.986 16.975 2.726 4.891-2.493 8.029-4.518 8.048-4.538a.254.254 0 01.273.429c-.039.02-3.176 2.064-8.107 4.557a15.445 15.445 0 01-6.879 1.636z" fill="#D6D2B8"/>
  <path d="M393.324 51.788c-4.17 0-7.912-2.104-10.894-6.194-.078-.117-.058-.273.059-.35.117-.078.273-.059.351.058 4.092 5.61 9.685 7.343 15.785 4.87 5.301-2.143 9.491-5.318 9.53-5.357.117-.078.273-.058.351.039.078.117.058.273-.039.35-.039.04-4.307 3.234-9.647 5.415-1.89.799-3.742 1.169-5.496 1.169z" fill="#D6D2B8"/>
  <path d="M403.856 45.016c4.126.513-.759 14.139 2.102 15.677 2.861 1.538-.837 8.696-2.18 10.905-1.342 2.208-6.811 1.36-10.761.69-3.951-.69-6.48.513-8.232.69-1.771.178-2.783-1.617-2.783-1.617s.253 10.727 3.698 12.956c3.444 2.208 12.435 1.36 15.373.69 2.939-.69 6.13-5.364 6.636-7.927.506-2.564 1.927-5.956 1.596-7.75-.331-1.794-1.42-3.747-.584-6.566.837-2.82 2.355-6.133 2.53-6.646.175-.513-1.771-8.519-1.771-8.519l-4.884-4.772-.74 2.19z" fill="#D6D2B8"/>
  <path d="M381.027 67.54c2.77 2.416 3.177-.424 7.865-1.081 4.688-.676 9.047.251 11.469 1.835 2.421 1.584 6.025.329 6.025.329s-1.841 4.752-3.507 4.423c-1.666-.328-6.199-3.342-10.384-3.496-3.428-.135-5.095.58-7.69 2.086-2.596 1.507-3.681 0-3.681 0l-.097-4.095z" fill="#D6D2B8"/>
  <path d="M103.887 312.447a6.239 6.239 0 100-12.475 6.239 6.239 0 100 12.475zM41.664 306.966a6.24 6.24 0 006.241-6.238 6.24 6.24 0 00-6.24-6.238 6.24 6.24 0 00-6.242 6.238 6.24 6.24 0 006.241 6.238z" fill="#4C5B8A"/>
  <path d="M40.983 283.886c47.982 8.941 58.12 10.585 71.112 10.245 12.993-.34 16.757 7.183 10.251 9.564-6.487 2.401-46.507-1.928-65.646-5.122-38.96-6.503-35.897-18.449-15.717-14.687z" fill="#4C5B8A"/>
  <path d="M40.983 281.599c47.982 8.941 58.12 10.585 71.112 10.245 12.993-.34 16.757 7.183 10.251 9.564-6.487 2.401-46.507-1.928-65.646-5.122-38.96-6.484-35.897-18.449-15.717-14.687z" fill="#7FA5DE"/>
  <path opacity=".3" d="M99.897 291.636l.056-.17c-9.154-.832-21.863-2.987-47.376-7.712 8.36 10.849 13.674 7.901 23.149 10.15 9.57 2.287 20.823 1.059 22.185.151 1.38-.907 1.986-2.419 1.986-2.419z" fill="#4C5B8A"/>
  <path d="M81.891 109.911c10.024 17.541 6.847 54.211 9.57 66.97 2.743 12.759.681 28.486.227 29.847-.454 1.36-12.993-39.865-12.993-39.865l3.197-56.952z" fill="#7FA5DE"/>
  <path d="M78.695 162.081c5.92 15.953 23.017 60.146 22.109 67.424-.908 7.296-17.778 41.471-17.778 46.026 0 4.556-10.818 4.216-10.818-1.247s.794-24.724 5.353-33.381c4.557-8.657 1.815-11.398-1.362-18.222-3.197-6.842-19.594-21.87-19.594-21.87l10.478-44.646 11.612 5.916z" fill="#FAAC73"/>
  <path d="M79.47 229.902c.909 2.986.72 6.011-1.91 11.001-.926 1.739-2.156 6.313-2.893 8.657 3.782-1.985 10.95-8.241 13.825-11.549 3.272-3.762 7.924-7.032 12.047-7.202.133-.491.209-.945.265-1.304.189-1.531-.416-4.726-1.55-8.922l-17.892 4.366-1.891 4.953z" fill="#EB995E"/>
  <path d="M79.376 157.525l22.79 69.258s-7.3 4.101-17.324 6.842c-10.024 2.741-12.312 2.741-12.312 2.741l-17.305-37.388 15.508-45.554 8.643 4.101z" fill="#BDCCD4"/>
  <path d="M79.32 155.597l-8.606-2.173-15.508 45.554 17.324 37.369s1.248 0 5.957-1.115c.038-2.495.151-6.918.435-13.477.416-9.962.776-24.195 9.948-35.158l-9.55-31z" fill="#99B5C4"/>
  <path d="M43.82 161.627c-10.477 46.934 4.104 65.156.454 82.016-2.534 11.72 6.374 51.036 6.374 51.036s7.527.681 9.343-2.041c1.815-2.741 4.785-35.309 3.423-47.615-1.362-12.305 5.92-38.276 8.662-54.211 2.742-15.953 0-22.323 0-22.323l-28.256-6.862z" fill="#FAAC73"/>
  <path d="M43.574 226.064c1.154 6.597 1.873 12.154.7 17.56-.586 2.741-.567 6.975-.17 11.871 2.08-6.03 5.182-10.548 19.14-13.591-.038-4.177.586-9.394 1.55-15.008l-21.22-.832z" fill="#EB995E"/>
  <path d="M37.447 166.636l-.17 24.686-3.254 2.193 2.818 45.403s18.384-.303 25.684.151l7.3.454s1.362-17.22 2.289-36.217c1.134-23.684 3.423-37.143 3.423-39.411 0-2.287-35.33-9.111-35.33-9.111l-2.76 11.852z" fill="#BDCCD4"/>
  <path d="M73.683 191.927s-13.9-2.287-18.231-1.134c-4.331 1.134 11.631.907 15.035 6.616l3.424 5.689-.228-11.171zM53.844 174.386c-3.65 7.523-16.643 17.087-16.643 17.087v-27.351l20.066 1.134-3.423 9.13z" fill="#99B5C4"/>
  <path d="M55.678 96.245c2.535-.265-.7-2.628-13.447 4.101-8.208 4.329-20.728 19.961-22.109 25.783-1.361 5.803 7.736 48.597 20.729 53.039 12.993 4.442 40.435 1.078 43.877-5.462 5.145-9.754 3.083-50.639-.34-59.882-3.423-9.225-11.972-15.028-16.757-15.727-4.766-.68-11.953-1.852-11.953-1.852z" fill="#7FA5DE"/>
  <path d="M40.057 176.314c11.858 3.648 44.785-3.875 44.785-3.875l1.362 5.349s-9.343 3.875-21.201 4.896c-11.859 1.021-24.285-1.248-24.285-1.248l-.661-5.122z" fill="#426AA3"/>
  <path d="M49.513 162.308c-2.515-12.306-7.981-25.291 3.272-57.633 5.106-14.687-5.012-7.523-15.206-1.115-7.622 6.313-16.114 18.467-17.248 23.268-1.362 5.803 4.35 47.218 17.342 51.66 1.495.51 5.56 1.474 7.528 1.814 4.16-3.251 6.411-7.768 4.312-17.994z" fill="#426AA3"/>
  <path d="M78.62 70.803c3.801 8.052 7.451 7.145 6.222 9.413-1.21 2.287.303 3.346-.908 5.009-1.21 1.663-5.617 2.74-5.768 3.95-.151 1.21-6.222.152-6.222.152l2.288-18.676 4.388.152z" fill="#D6D2B8"/>
  <path d="M61.92 105.734c-4.445 0-8.076-3.63-8.076-8.072V81.917c0-4.442 3.631-8.071 8.076-8.071 4.444 0 8.075 3.629 8.075 8.07v15.746c0 4.442-3.63 8.072-8.075 8.072z" fill="#EB995E"/>
  <path d="M65.362 100.895c-5.012-1.475-8.473-3.648-11.196-21.17a7.677 7.677 0 00-.303 2.192v15.745c0 4.442 3.631 8.072 8.076 8.072 5.825 5.462 5.409-1.531 6.846-3.8a152.765 152.765 0 00-3.423-1.039z" fill="#FAAC73"/>
  <path d="M69.995 93.617c2.8 4.045 3.272 4.5 3.405 5.803.113 1.305-.681 2.855-.681 2.855l-5.012 1.871s1.324-2.665 2.156-9.451c.057-.492.132-1.078.132-1.078z" fill="#426AA3"/>
  <path d="M78.998 75.263c1.494 8.544-.51 16.559-7.357 17.75-6.847 1.19-15.055-2.912-17.438-13.421-1.91-8.468 2.837-16.445 9.684-17.655 6.865-1.21 13.617 4.764 15.11 13.326z" fill="#FAAC73"/>
  <path d="M71.168 71.256l-17.154 1.815c12.142 5.614 19.745 1.663 23.395 1.984a6.816 6.816 0 001.551-.019 20.886 20.886 0 00-.473-1.946l-7.319-1.834z" fill="#EB995E"/>
  <path d="M50.496 72.617c-1.664 4.556-7.905 8.355-6.525 9.413 1.362 1.059.757.908 2.743 2.59 1.967 1.663 2.894-1.36 5.163-.454 2.288.908 4.558 2.288 5.314 1.361.757-.907 2.289-4.706 1.514-5.614-.757-.907.453-1.058 1.059-1.814.605-.756.454-2.741.151-3.648-.284-.926-9.419-1.834-9.419-1.834z" fill="#D6D2B8"/>
  <path d="M39.565 176.503c4.104 3.043 4.255 9.262 4.255 9.262s-4.255 4.631-8.662 6.918c-.378-2.589-.151-4.026-.605-5.992-.454-1.965-.605-6.521-.605-6.521l5.617-3.667z" fill="#FAAC73"/>
  <path d="M33.343 106.716c-18.251 20.736-26.894 49.94-22.79 59.051 4.104 9.11 19.442 18.108 22.638 17.427 3.197-.68 6.374-6.691 6.374-6.691s-9.76-14.271-6.79-22.701c2.97-8.431 9.21-11.55 10.137-25.896.587-9.338 1.892-12.381 5.92-24.989.983-3.062-1.4-5.368-2.515-4.933-6.45 2.514-12.974 8.732-12.974 8.732z" fill="#7FA5DE"/>
  <path d="M53.844 92.294c1.248 6.143 8.586 13.251 11.329 12.91 2.742-.34 2.59-1.55 3.612-3.837.416-.945.757-1.89.889-2.344.057-.208 1.021-.113 1.816 0 .813.114 1.607-1.077 1.89.095.455 1.928-2.893 8.846-5.616 9.526-2.743.681-4.785 1.626-12.312-.642-7.528-2.287-9.627-7.958-9.268-9.791 1.173-5.917 7.66-5.917 7.66-5.917z" fill="#426AA3"/>
  <path d="M68.293 106.187c8.057 17.919 7.754 36.292 7.452 50.582-.303 14.271-1.06 20.358-1.06 20.358l-1.664.756s2.119-32.814.303-45.554c-1.816-12.759-9.419-24.308-10.326-24.459-.946-.171 5.295-1.683 5.295-1.683zM52.936 127.452c-.908-4.102 8.36-4.858 9.267-4.101.908.756 1.06 3.95-.151 5.765-1.21 1.814-8.965 2.74-9.873 1.814-.907-.907.757-3.478.757-3.478zM85.069 173.8c3.972-12.513 2.515-51.376-.681-59.995-2.459-6.616-7.527-11.455-11.972-13.931l.114 1.89c8.662 5.614 13.447 24.441 14.279 33.722 1.967 21.718-2.44 36.594-2.44 36.594s.132 3.157.7 1.72z" fill="#426AA3"/>
  <path d="M65.854 233.002l-2.516-.983s-17.872-2.117-26.97-.492l.076 1.078 3.65-.208c22.26-.832 25.76.605 25.76.605z" fill="#99B5C4"/>
  <path d="M49.286 289.424c1.362 6.843-6.846 20.509-2.97 23.004 3.878 2.514 14.128 1.361 16.417 0 2.288-1.361-2.288-16.634-1.362-22.324.908-5.689-12.085-.68-12.085-.68z" fill="#F5F3E6"/>
  <path d="M46.336 312.428c3.877 2.514 14.127 1.361 16.416 0 1.248-.737 1.04-5.67.265-10.869-.038-.302-.208-.548-.435-.756-.72-.605-.624-.283-1.419-4.725-.265-1.437-9.797-2.098-10.194 2.155-.17 1.89-1.797 1.72-2.629.132-.246-.454-.908-.397-1.04.113-1.664 6.03-3.442 12.362-.964 13.95z" fill="#413F57"/>
  <path d="M83.197 272.318c.567-.038 1.059.416 1.04.983-.265 5.519-.813 9.432 1.305 11.549 2.288 2.287 10.023 3.421 10.477 6.37.454 2.968-7.073 4.329-13.447 2.741-6.373-1.588-5.465-5.69-12.312-7.07-6.846-1.361-5.239-7.296-3.196-9.11 2.043-1.815 3.99-5.009 4.218-7.07l.245-2.136a.824.824 0 011.362-.529c.719.605 1.872 1.399 3.764 2.438 3.12 1.739 5.333 1.928 6.543 1.834z" fill="#F5F3E6"/>
  <path d="M85.542 284.869c-1.287-1.286-1.76-3.138-1.91-5.595-2.421.548-6.885 1.361-9.949-.794-1.891-1.323-3.007-2.93-3.82-4.159-.397-.604-1.305-.434-1.475.265-.303 1.229-.908 2.514-1.589 3.27-1.835 2.042-3.366 7.693 3.48 9.054 6.846 1.361 5.92 5.463 12.312 7.07 6.374 1.587 13.901.226 13.447-2.741-.473-2.949-8.227-4.102-10.496-6.37z" fill="#3A384D"/>
  <path d="M75.272 280.692s8.36-5.766 9.57-4.253c1.21 1.512 2.118 7.447 5.314 11.246 3.197 3.781-14.884-6.993-14.884-6.993zM67.064 277.8c-2.591 2.589-3.801 8.354-2.591 9.413 1.21 1.058 6.998 1.663 10.175 3.345 4.407 2.307 9.57 4.707 13.523 4.102 3.952-.605-4.71-6.842-4.71-6.842L67.064 277.8z" fill="#3A384D"/>
  <path d="M69.504 70.349c8.057 4.404 9.418 2.892 12.766 4.102 3.347 1.21.908-4.253.908-4.253l-13.674.15z" fill="#D6D2B8"/>
  <path d="M49.891 73.07C46.09 65.02 47.15 58.8 49.74 56.665c2.59-2.117 12.01-10.32 14.128-8.96 2.118 1.361 11.404 6.068 12.463 8.96 1.06 2.892 1.513 11.095 1.513 11.095s-13.522 4.253-20.066 5.312c-6.506 1.077-7.887 0-7.887 0z" fill="#426AA3"/>
  <path d="M57.91 71.615c-4.86-13.061 3.688-22.229 5.825-21.775 2.118.454 11.102 6.521 12.01 8.808.908 2.288.908 9.111.908 9.111s-12.615 4.026-16.568 3.95c-2.345-.056-2.175-.094-2.175-.094z" fill="#7FA5DE"/>
  <path d="M66.288 64.867c-2.099.473-3.65-1.966-2.307-3.63 1.91-2.38 5.56-3.836 7.338-3.042 2.743 1.21 4.558 4.706 3.348 4.858-.757.094-5.201 1.096-8.379 1.814zM76.88 67.268c6.354-.492 13.957 2.041 7.357 3.383-7.452 1.513-15.187 3.8-20.672 4.556-5.466.756-16.114-1.966-11.404-2.439 4.368-.415 16.964-4.366 20.955-5.065.34-.057 2.95-.378 3.763-.435z" fill="#426AA3"/>
  <defs>
    <linearGradient id="paint0_linear" x1="311.02" y1="132.181" x2="288.216" y2="132.563" gradientUnits="userSpaceOnUse">
      <stop offset=".201" stop-color="#FFD380"/>
      <stop offset=".917" stop-color="#FFD06B"/>
    </linearGradient>
    <linearGradient id="paint1_linear" x1="356.243" y1="135.529" x2="304.36" y2="136.398" gradientUnits="userSpaceOnUse">
      <stop offset=".201" stop-color="#FFD380"/>
      <stop offset=".917" stop-color="#FFD06B"/>
    </linearGradient>
    <linearGradient id="paint2_linear" x1="346.325" y1="129.371" x2="295.589" y2="130.22" gradientUnits="userSpaceOnUse">
      <stop offset=".201" stop-color="#FFD380"/>
      <stop offset=".917" stop-color="#FFD06B"/>
    </linearGradient>
  </defs>
</svg>